<svg xmlns="http://www.w3.org/2000/svg" xmlns:xlink="http://www.w3.org/1999/xlink" width="1000" zoomAndPan="magnify" viewBox="0 0 750 749.999995" height="1000" preserveAspectRatio="xMidYMid meet" version="1.0"><defs><g/></defs><rect x="-75" width="900" fill="#ffffff" y="-74.999999" height="899.999994" fill-opacity="1"/><rect x="-75" width="900" fill="#fff8ff" y="-74.999999" height="899.999994" fill-opacity="1"/><g fill="#1c2826" fill-opacity="1"><g transform="translate(164.992449, 517.749986)"><g><path d="M 408.09375 36.40625 C 408.09375 74.664062 391.992188 102.894531 359.796875 121.09375 C 327.597656 139.300781 276.96875 148.40625 207.90625 148.40625 C 173.363281 148.40625 144.894531 146.421875 122.5 142.453125 C 100.101562 138.484375 82.253906 132.765625 68.953125 125.296875 C 55.648438 117.828125 46.316406 108.957031 40.953125 98.6875 C 35.585938 88.425781 32.90625 77.226562 32.90625 65.09375 C 32.90625 44.5625 38.96875 29.046875 51.09375 18.546875 C 63.226562 8.046875 80.265625 0 102.203125 -5.59375 L 102.203125 -9.796875 C 86.796875 -14.460938 74.539062 -21.113281 65.4375 -29.75 C 56.34375 -38.382812 51.796875 -50.632812 51.796875 -66.5 C 51.796875 -84.226562 57.742188 -97.289062 69.640625 -105.6875 C 81.546875 -114.09375 97.300781 -120.628906 116.90625 -125.296875 L 116.90625 -129.5 C 95.4375 -139.769531 78.75 -154.238281 66.84375 -172.90625 C 54.945312 -191.570312 49 -214.203125 49 -240.796875 C 49 -261.796875 52.734375 -280.34375 60.203125 -296.4375 C 67.671875 -312.539062 78.285156 -325.957031 92.046875 -336.6875 C 105.816406 -347.425781 122.265625 -355.59375 141.390625 -361.1875 C 160.523438 -366.789062 181.992188 -369.59375 205.796875 -369.59375 C 228.660156 -369.59375 249.894531 -367.03125 269.5 -361.90625 L 269.5 -381.5 C 269.5 -395.5 274.398438 -407.164062 284.203125 -416.5 C 294.003906 -425.832031 307.535156 -430.5 324.796875 -430.5 L 388.5 -430.5 L 388.5 -354.90625 L 301.703125 -354.90625 L 301.703125 -348.59375 C 321.296875 -338.332031 336.578125 -324.21875 347.546875 -306.25 C 358.515625 -288.28125 364 -266.460938 364 -240.796875 C 364 -219.796875 360.265625 -201.363281 352.796875 -185.5 C 345.328125 -169.632812 334.59375 -156.21875 320.59375 -145.25 C 306.59375 -134.28125 289.910156 -125.992188 270.546875 -120.390625 C 251.179688 -114.796875 229.597656 -112 205.796875 -112 C 195.066406 -112 184.800781 -112.582031 175 -113.75 C 165.195312 -114.914062 155.863281 -116.664062 147 -119 C 141.863281 -116.195312 137.546875 -112.695312 134.046875 -108.5 C 130.546875 -104.300781 128.796875 -98.9375 128.796875 -92.40625 C 128.796875 -86.800781 130.195312 -82.363281 133 -79.09375 C 135.800781 -75.832031 139.648438 -73.382812 144.546875 -71.75 C 149.453125 -70.113281 155.171875 -69.0625 161.703125 -68.59375 C 168.234375 -68.132812 175 -67.90625 182 -67.90625 L 264.59375 -67.90625 C 290.257812 -67.90625 312.191406 -65.335938 330.390625 -60.203125 C 348.597656 -55.066406 363.535156 -47.832031 375.203125 -38.5 C 386.867188 -29.164062 395.265625 -18.195312 400.390625 -5.59375 C 405.523438 7 408.09375 21 408.09375 36.40625 Z M 310.09375 44.09375 C 310.09375 34.757812 306.359375 27.410156 298.890625 22.046875 C 291.429688 16.679688 277.203125 14 256.203125 14 L 132.296875 14 C 122.960938 21.9375 118.296875 31.738281 118.296875 43.40625 C 118.296875 54.601562 123.078125 63.816406 132.640625 71.046875 C 142.210938 78.285156 158.429688 81.90625 181.296875 81.90625 L 242.203125 81.90625 C 266.003906 81.90625 283.269531 78.632812 294 72.09375 C 304.726562 65.5625 310.09375 56.226562 310.09375 44.09375 Z M 205.796875 -177.796875 C 226.796875 -177.796875 242.078125 -182.925781 251.640625 -193.1875 C 261.210938 -203.457031 266 -216.53125 266 -232.40625 L 266 -249.203125 C 266 -265.066406 261.210938 -278.128906 251.640625 -288.390625 C 242.078125 -298.660156 226.796875 -303.796875 205.796875 -303.796875 C 185.265625 -303.796875 170.332031 -298.660156 161 -288.390625 C 151.664062 -278.128906 147 -265.066406 147 -249.203125 L 147 -232.40625 C 147 -216.53125 151.664062 -203.457031 161 -193.1875 C 170.332031 -182.925781 185.265625 -177.796875 205.796875 -177.796875 Z M 205.796875 -177.796875 "/></g></g></g></svg>